Coordinates
version=1
nRows=7
nColumns=40
inDegrees=yes

Units are S.I. units (second, meters, Newtons, ...)
If the header above contains a line with 'inDegrees', this indicates whether rotational values are in degrees (yes) or radians (no).

endheader
time	pelvis_tilt	pelvis_list	pelvis_rotation	pelvis_tx	pelvis_ty	pelvis_tz	hip_flexion_r	hip_adduction_r	hip_rotation_r	knee_angle_r	knee_angle_r_beta	ankle_angle_r	subtalar_angle_r	mtp_angle_r	hip_flexion_l	hip_adduction_l	hip_rotation_l	knee_angle_l	knee_angle_l_beta	ankle_angle_l	subtalar_angle_l	mtp_angle_l	lumbar_extension	lumbar_bending	lumbar_rotation	arm_flex_r	arm_add_r	arm_rot_r	elbow_flex_r	pro_sup_r	wrist_flex_r	wrist_dev_r	arm_flex_l	arm_add_l	arm_rot_l	elbow_flex_l	pro_sup_l	wrist_flex_l	wrist_dev_l
      4.56000000	    -41.35861984	      5.57915407	     -4.93502957	     -0.39282846	      0.64747701	     -0.89663432	    107.59835235	    -16.01813179	      9.66080098	     97.78226044	      1.70662239	     32.38233752	      0.00000000	      0.00000000	    105.70183571	    -27.47017796	     -0.39633027	     97.58775418	      1.70322762	     36.19545473	      0.00000000	      0.00000000	    -17.67106566	     -6.79455387	      2.00869711	     16.66716935	    -52.17242895	     89.55824963	     86.13088136	     88.75535201	      0.00000000	      0.00000000	     12.32552127	    -57.54141808	     89.56133905	     92.99297322	     86.08305152	      0.00000000	      0.00000000
      4.56500000	    -41.38035978	      5.55522265	     -4.91973544	     -0.39243985	      0.64849282	     -0.89641168	    107.45541923	    -15.98108766	      9.59468933	     97.64685352	      1.70425910	     32.43280208	      0.00000000	      0.00000000	    105.54805982	    -27.36867377	     -0.35352435	     97.36941197	      1.69941683	     36.10217156	      0.00000000	      0.00000000	    -17.64937215	     -6.79333895	      2.02253311	     16.72627590	    -52.06312800	     89.55427537	     86.05187736	     88.71495259	      0.00000000	      0.00000000	     12.54569906	    -57.53395939	     89.55621425	     92.94677466	     87.31216594	      0.00000000	      0.00000000
      4.57000000	    -41.41803143	      5.52421485	     -4.87712292	     -0.39193987	      0.64927075	     -0.89644533	    107.32255443	    -15.93951188	      9.62918221	     97.52126131	      1.70206710	     32.52262973	      0.00000000	      0.00000000	    105.45262925	    -27.20318744	     -0.29771301	     97.24061810	      1.69716895	     36.21493134	      0.00000000	      0.00000000	    -17.58227161	     -6.73724475	      2.00133185	     16.76632933	    -52.01931949	     89.55876191	     85.96314549	     88.75222204	      0.00000000	      0.00000000	     12.54412236	    -57.47609520	     89.57088232	     92.93904134	     86.21137908	      0.00000000	      0.00000000
      4.57500000	    -41.40498893	      5.43845538	     -4.90819987	     -0.39136769	      0.65031345	     -0.89607906	    107.08616089	    -15.81214964	      9.56280725	     97.39204654	      1.69981188	     32.56929701	      0.00000000	      0.00000000	    105.32179107	    -27.11467456	     -0.14297211	     97.08673862	      1.69448325	     36.15890514	      0.00000000	      0.00000000	    -17.53942494	     -6.67476359	      2.10138671	     16.78790151	    -51.97040407	     89.55561250	     85.90277942	     88.71590518	      0.00000000	      0.00000000	     12.72137161	    -57.44317862	     89.56283265	     92.94804553	     87.29853899	      0.00000000	      0.00000000
      4.58000000	    -41.48700854	      5.48789796	     -4.85818612	     -0.39071952	      0.65123139	     -0.89613604	    107.01225828	    -15.74793618	      9.68482626	     97.23842431	      1.69713066	     32.62749909	      0.00000000	      0.00000000	    105.16582288	    -26.96646658	     -0.22282802	     96.89998968	      1.69122387	     36.25912644	      0.00000000	      0.00000000	    -17.38198903	     -6.69937314	      2.05089609	     16.80735814	    -51.89442836	     89.55733812	     85.79455812	     88.75965400	      0.00000000	      0.00000000	     12.72564876	    -57.37311293	     89.57689005	     92.93023936	     86.43284245	      0.00000000	      0.00000000
      4.58500000	    -41.52448381	      5.50669931	     -4.73193753	     -0.39015088	      0.65234760	     -0.89633320	    106.87635467	    -15.77225293	      9.80147654	     97.07779831	      1.69432721	     32.74161601	      0.00000000	      0.00000000	    104.97519779	    -26.72807471	     -0.30914431	     96.69661121	      1.68767424	     36.24082324	      0.00000000	      0.00000000	    -17.29425658	     -6.66667006	      1.93632110	     16.89588464	    -51.86406377	     89.56007398	     85.78598509	     88.75327979	      0.00000000	      0.00000000	     12.80829767	    -57.31683597	     89.56726932	     92.80479324	     87.25401300	      0.00000000	      0.00000000
      4.59000000	    -41.52482823	      5.42638958	     -4.58189629	     -0.38943828	      0.65380882	     -0.89653748	    106.62631326	    -15.83441471	      9.81018514	     96.91076207	      1.69141188	     32.80137984	      0.00000000	      0.00000000	    104.74912680	    -26.43372531	     -0.27426789	     96.44602233	      1.68330064	     36.22344052	      0.00000000	      0.00000000	    -17.25694356	     -6.53576619	      1.85455206	     16.97515212	    -51.81974681	     89.56536558	     85.66350546	     88.74045654	      0.00000000	      0.00000000	     12.96070692	    -57.22754646	     89.57113701	     92.75345527	     87.33325204	      0.00000000	      0.00000000
